<svg xmlns="http://www.w3.org/2000/svg" viewBox="0 0 1280 320">
  <defs>
    <linearGradient id="bg" x1="0%" y1="0%" x2="100%" y2="100%">
      <stop offset="0%" style="stop-color:#0a0e1a"/>
      <stop offset="50%" style="stop-color:#0f1729"/>
      <stop offset="100%" style="stop-color:#0a1628"/>
    </linearGradient>
    <linearGradient id="accent" x1="0%" y1="0%" x2="100%" y2="0%">
      <stop offset="0%" style="stop-color:#00d4aa"/>
      <stop offset="100%" style="stop-color:#00a3ff"/>
    </linearGradient>
    <linearGradient id="glow" x1="0%" y1="0%" x2="0%" y2="100%">
      <stop offset="0%" style="stop-color:#00d4aa;stop-opacity:0.6"/>
      <stop offset="100%" style="stop-color:#00a3ff;stop-opacity:0.1"/>
    </linearGradient>
    <filter id="softglow"><feGaussianBlur stdDeviation="4" result="blur"/><feMerge><feMergeNode in="blur"/><feMergeNode in="SourceGraphic"/></feMerge></filter>
  </defs>
  <rect width="1280" height="320" fill="url(#bg)"/>
  <g opacity="0.04" stroke="#00d4aa" stroke-width="0.5">
    <line x1="0" y1="40" x2="1280" y2="40"/><line x1="0" y1="80" x2="1280" y2="80"/>
    <line x1="0" y1="120" x2="1280" y2="120"/><line x1="0" y1="160" x2="1280" y2="160"/>
    <line x1="0" y1="200" x2="1280" y2="200"/><line x1="0" y1="240" x2="1280" y2="240"/>
    <line x1="0" y1="280" x2="1280" y2="280"/>
    <line x1="160" y1="0" x2="160" y2="320"/><line x1="320" y1="0" x2="320" y2="320"/>
    <line x1="480" y1="0" x2="480" y2="320"/><line x1="640" y1="0" x2="640" y2="320"/>
    <line x1="800" y1="0" x2="800" y2="320"/><line x1="960" y1="0" x2="960" y2="320"/>
    <line x1="1120" y1="0" x2="1120" y2="320"/>
  </g>
  <g opacity="0.12">
    <circle cx="920" cy="80" r="4" fill="#00d4aa"/><circle cx="1020" cy="60" r="3" fill="#00a3ff"/>
    <circle cx="1100" cy="110" r="5" fill="#00d4aa"/><circle cx="1180" cy="70" r="3" fill="#00a3ff"/>
    <circle cx="960" cy="180" r="3" fill="#00d4aa"/><circle cx="1060" cy="200" r="4" fill="#00a3ff"/>
    <circle cx="1150" cy="170" r="3" fill="#00d4aa"/><circle cx="1200" cy="230" r="4" fill="#00a3ff"/>
    <line x1="920" y1="80" x2="1020" y2="60" stroke="#00d4aa" stroke-width="0.5"/>
    <line x1="1020" y1="60" x2="1100" y2="110" stroke="#00a3ff" stroke-width="0.5"/>
    <line x1="1100" y1="110" x2="1180" y2="70" stroke="#00d4aa" stroke-width="0.5"/>
    <line x1="960" y1="180" x2="1060" y2="200" stroke="#00a3ff" stroke-width="0.5"/>
    <line x1="1060" y1="200" x2="1150" y2="170" stroke="#00d4aa" stroke-width="0.5"/>
    <line x1="1150" y1="170" x2="1200" y2="230" stroke="#00a3ff" stroke-width="0.5"/>
  </g>
  <g opacity="0.06">
    <circle cx="1060" cy="160" r="40" fill="none" stroke="#ff4444" stroke-width="1" stroke-dasharray="3 3"/>
    <circle cx="1060" cy="160" r="70" fill="none" stroke="#ff8800" stroke-width="0.8" stroke-dasharray="4 4"/>
    <circle cx="1060" cy="160" r="100" fill="none" stroke="#ffcc00" stroke-width="0.6" stroke-dasharray="5 5"/>
  </g>
  <g transform="translate(100, 90)">
    <path d="M60 0 L120 24 L120 72 C120 112 92 136 60 148 C28 136 0 112 0 72 L0 24 Z" fill="none" stroke="url(#accent)" stroke-width="2.5" filter="url(#softglow)"/>
    <path d="M60 8 L112 28 L112 72 C112 106 88 128 60 138 C32 128 8 106 8 72 L8 28 Z" fill="#0a0e1a" fill-opacity="0.8" stroke="url(#accent)" stroke-width="0.5" opacity="0.4"/>
    <circle cx="60" cy="70" r="32" fill="none" stroke="#00d4aa" stroke-width="0.8" opacity="0.3"/>
    <circle cx="60" cy="70" r="22" fill="none" stroke="#00d4aa" stroke-width="0.6" opacity="0.2"/>
    <circle cx="60" cy="70" r="12" fill="none" stroke="#00d4aa" stroke-width="0.5" opacity="0.15"/>
    <path d="M60 70 L60 38 A32 32 0 0 1 87 55 Z" fill="url(#glow)" opacity="0.3"/>
    <circle cx="60" cy="70" r="4" fill="#00d4aa" filter="url(#softglow)"/>
    <circle cx="45" cy="55" r="2.5" fill="#ff4444" opacity="0.8"/>
    <circle cx="78" cy="78" r="2" fill="#ffcc00" opacity="0.7"/>
    <circle cx="52" cy="88" r="2" fill="#00d4aa" opacity="0.6"/>
    <line x1="28" y1="70" x2="92" y2="70" stroke="#00d4aa" stroke-width="0.3" opacity="0.3"/>
    <line x1="60" y1="38" x2="60" y2="102" stroke="#00d4aa" stroke-width="0.3" opacity="0.3"/>
  </g>
  <text x="260" y="148" font-family="Inter,SF Pro Display,Segoe UI,system-ui,sans-serif" font-size="52" font-weight="700" fill="white" letter-spacing="-1">OpenGov<tspan fill="url(#accent)"> AI</tspan></text>
  <text x="262" y="185" font-family="Inter,SF Pro Display,Segoe UI,system-ui,sans-serif" font-size="17" fill="#8899aa" font-weight="400" letter-spacing="0.5">AI Agent Risk Intelligence Platform</text>
  <rect x="262" y="205" width="130" height="26" rx="13" fill="#00d4aa" fill-opacity="0.12" stroke="#00d4aa" stroke-width="0.8" stroke-opacity="0.3"/>
  <circle cx="278" cy="218" r="3.5" fill="#00d4aa" opacity="0.9"/>
  <text x="290" y="223" font-family="Inter,SF Pro Display,sans-serif" font-size="12" fill="#00d4aa" font-weight="500">In Development</text>
  <g transform="translate(262, 252)" font-family="JetBrains Mono,SF Mono,Fira Code,monospace" font-size="10.5" fill="#556677">
    <text x="0" y="0">Discovery</text><text x="75" y="0" fill="#334455">·</text>
    <text x="88" y="0">Risk Scoring</text><text x="183" y="0" fill="#334455">·</text>
    <text x="196" y="0">Blast Radius</text><text x="291" y="0" fill="#334455">·</text>
    <text x="304" y="0">Incident Response</text>
  </g>
  <rect x="0" y="316" width="1280" height="4" fill="url(#accent)" opacity="0.6"/>
</svg>
