<svg xmlns="http://www.w3.org/2000/svg" viewBox="0 0 128 128">
  <defs>
    <linearGradient id="bg" x1="0%" y1="0%" x2="100%" y2="100%"><stop offset="0%" style="stop-color:#0a0e1a"/><stop offset="100%" style="stop-color:#0f1729"/></linearGradient>
    <linearGradient id="accent" x1="0%" y1="0%" x2="100%" y2="100%"><stop offset="0%" style="stop-color:#00d4aa"/><stop offset="100%" style="stop-color:#00a3ff"/></linearGradient>
    <linearGradient id="sweep" x1="0%" y1="0%" x2="0%" y2="100%"><stop offset="0%" style="stop-color:#00d4aa;stop-opacity:0.5"/><stop offset="100%" style="stop-color:#00a3ff;stop-opacity:0.05"/></linearGradient>
    <filter id="glow"><feGaussianBlur stdDeviation="2" result="blur"/><feMerge><feMergeNode in="blur"/><feMergeNode in="SourceGraphic"/></feMerge></filter>
  </defs>
  <rect width="128" height="128" rx="28" fill="url(#bg)"/>
  <g transform="translate(24, 14)">
    <path d="M40 0 L80 16 L80 48 C80 75 62 90 40 98 C18 90 0 75 0 48 L0 16 Z" fill="none" stroke="url(#accent)" stroke-width="2.5" filter="url(#glow)"/>
    <path d="M40 6 L74 20 L74 48 C74 70 58 84 40 90 C22 84 6 70 6 48 L6 20 Z" fill="#0a0e1a" fill-opacity="0.7"/>
    <circle cx="40" cy="48" r="24" fill="none" stroke="#00d4aa" stroke-width="0.8" opacity="0.25"/>
    <circle cx="40" cy="48" r="16" fill="none" stroke="#00d4aa" stroke-width="0.6" opacity="0.2"/>
    <circle cx="40" cy="48" r="8" fill="none" stroke="#00d4aa" stroke-width="0.5" opacity="0.15"/>
    <path d="M40 48 L40 24 A24 24 0 0 1 61 38 Z" fill="url(#sweep)" opacity="0.4"/>
    <circle cx="40" cy="48" r="3" fill="#00d4aa" filter="url(#glow)"/>
    <circle cx="30" cy="37" r="2" fill="#ff4444" opacity="0.85"/>
    <circle cx="54" cy="54" r="1.5" fill="#ffcc00" opacity="0.7"/>
    <circle cx="34" cy="62" r="1.5" fill="#00d4aa" opacity="0.6"/>
    <line x1="16" y1="48" x2="64" y2="48" stroke="#00d4aa" stroke-width="0.3" opacity="0.25"/>
    <line x1="40" y1="24" x2="40" y2="72" stroke="#00d4aa" stroke-width="0.3" opacity="0.25"/>
  </g>
</svg>
